<?xml version="1.0" standalone="no"?>
<svg xmlns:xlink="http://www.w3.org/1999/xlink" id="wave" style="transform:rotate(0deg); transition: 0.3s" viewBox="0 0 1440 490" version="1.1" xmlns="http://www.w3.org/2000/svg"><defs><linearGradient id="sw-gradient-0" x1="0" x2="0" y1="1" y2="0"><stop stop-color="rgba(255, 255, 255, 1)" offset="0%"/><stop stop-color="rgba(255, 255, 255, 1)" offset="100%"/></linearGradient></defs><path style="transform:translate(0, 0px); opacity:1" fill="url(#sw-gradient-0)" d="M0,245L40,277.7C80,310,160,376,240,343C320,310,400,180,480,114.3C560,49,640,49,720,49C800,49,880,49,960,81.7C1040,114,1120,180,1200,196C1280,212,1360,180,1440,171.5C1520,163,1600,180,1680,220.5C1760,261,1840,327,1920,343C2000,359,2080,327,2160,326.7C2240,327,2320,359,2400,367.5C2480,376,2560,359,2640,359.3C2720,359,2800,376,2880,359.3C2960,343,3040,294,3120,236.8C3200,180,3280,114,3360,89.8C3440,65,3520,82,3600,130.7C3680,180,3760,261,3840,294C3920,327,4000,310,4080,294C4160,278,4240,261,4320,228.7C4400,196,4480,147,4560,122.5C4640,98,4720,98,4800,89.8C4880,82,4960,65,5040,122.5C5120,180,5200,310,5280,318.5C5360,327,5440,212,5520,212.3C5600,212,5680,327,5720,383.8L5760,441L5760,490L5720,490C5680,490,5600,490,5520,490C5440,490,5360,490,5280,490C5200,490,5120,490,5040,490C4960,490,4880,490,4800,490C4720,490,4640,490,4560,490C4480,490,4400,490,4320,490C4240,490,4160,490,4080,490C4000,490,3920,490,3840,490C3760,490,3680,490,3600,490C3520,490,3440,490,3360,490C3280,490,3200,490,3120,490C3040,490,2960,490,2880,490C2800,490,2720,490,2640,490C2560,490,2480,490,2400,490C2320,490,2240,490,2160,490C2080,490,2000,490,1920,490C1840,490,1760,490,1680,490C1600,490,1520,490,1440,490C1360,490,1280,490,1200,490C1120,490,1040,490,960,490C880,490,800,490,720,490C640,490,560,490,480,490C400,490,320,490,240,490C160,490,80,490,40,490L0,490Z"/></svg>